. 
 
http://www.torrenting.com          :     Once & For all ;)


               www . Torrenting . Com 

(((((((((((((= Enjoy No RAR releases =))))))))))))))))))))


...................................NFO:....................................

.                                                                                                     
       
     
     
       
       
     
     
                                         
                                         
                EXVID                    
                                         
         
                                         
         Filled the Archives             
                                         
         
                                         
                With:                    
                                         
         
                                         
                                    
     E240                           
                                    
     SP               (C) 2009      
                                         
     
     
     
                                                                                  
                                                                                   
                 Frogs.and.Toads.2009.DVDRip.XviD-EXViD                             
                                                                                   
                                                                                  
     
                                                                                               
EXViD aims to iNTERNAL those releases which have been lost in the archives.
EXViD aims to PRE non-internal releases which have poor sources and are likely skipped by others. 
http://www.imdb.com/title/tt1302570/
Subtitles: NL, EN
Date: 2012.01

Director: Simone van Dusseldorp

Genre: Adventure | Drama | Family

Plot:
Six year old Max has an important mission: find some frogspawn for his older brother. Together
with his neighbour girlfriend Jesse he makes an adventurous and touching journey along fields,
farms, animals and a forest which eventually leads to his grandma's home. There he's welcomed
by his grandma, her pancakes and the desired frogspawn. On his overwhelming journey through
nature he's accompanied by cheerful childrens songs.

Cast:
Nino den Brave	 ...	Max
Whitney Franker	 ...	Jesse
Thijs Goedknegt	 ...	Jannus
Bartek Kowalczyk	 ...	Polish Boy
Olaf Malmberg	 ...	Doctor
Laura Mastwijk	 ...	Farmer's Daughter
Quintis Ristie	 ...	Jesse's Dad
Bert van der Roest	 ...	Garbage Man
Georgina Verbaan	 ...	Heleen
Juul Vrijdag	 ...	Grandma
Remko Vrijdag	 ...	Busdriver Arie
Wimie Wilhelm	 ...	Female Busdriver

Stats:
Format                           : AVI
Format/Info                      : Audio Video Interleave
File size                        : 700 MiB
Duration                         : 1h 10mn
Overall bit rate                 : 1 396 Kbps
Writing application              : Nandub v1.0rc2
Writing library                  : Nandub build 1852/release

Video
ID                               : 0
Format                           : MPEG-4 Visual
Format profile                   : Advanced Simple@L5
Format settings, BVOP            : 2
Format settings, QPel            : No
Format settings, GMC             : No warppoints
Format settings, Matrix          : Default (H.263)
Codec ID                         : XVID
Codec ID/Hint                    : XviD
Duration                         : 1h 10mn
Bit rate                         : 1 261 Kbps
Width                            : 592 pixels
Height                           : 320 pixels
Display aspect ratio             : 1.850
Frame rate                       : 25.000 fps
Color space                      : YUV
Chroma subsampling               : 4:2:0
Bit depth                        : 8 bits
Scan type                        : Progressive
Compression mode                 : Lossy
Bits/(Pixel*Frame)               : 0.266
Stream size                      : 633 MiB (90%)
Writing library                  : XviD 64

Audio
ID                               : 1
Format                           : MPEG Audio
Format version                   : Version 1
Format profile                   : Layer 3
Mode                             : Joint stereo
Mode extension                   : MS Stereo
Codec ID                         : 55
Codec ID/Hint                    : MP3
Duration                         : 1h 10mn
Bit rate mode                    : Variable
Bit rate                         : 128 Kbps
Channel(s)                       : 2 channels
Sampling rate                    : 48.0 KHz
Compression mode                 : Lossy
Stream size                      : 61.3 MiB (9%)
Alignment                        : Aligned on interleaves
Interleave, duration             : 24 ms (0.60 video frame)
Interleave, preload duration     : 509 ms
Writing library                  : LAME3.98r
Encoding settings                : -m j -V 4 -q 3 -lowpass 17 --abr 128




Release notes:
enjoy!

Looking for:
75TB+ Archives
DUTCH/FLEMiSH Archives
                                                                                                    
Greets: CRBS EPiSODE FiCO FLS iLS KLASSiGER LiPSYNC MADE NODLABS RUNNER SPRiNTER      
   

                                                                    ASCII DONE BY XX^NFO 2oo9